<?xml version="1.0" encoding="utf-8"?>
<svg viewBox="-40 -40 580 580" width="580" height="580" xmlns="http://www.w3.org/2000/svg">
  <rect width="580" height="580" style="fill: rgba(216, 216, 216, 0); stroke: rgba(0, 0, 0, 0);" x="-40" y="-40"/>
  <g transform="matrix(1, 0, 0, 1, -10, -10.000002)">
    <path fill="#d0dce7" d="M400 400H120V50h221v60h59z" data-original="#d0dce7"/>
    <path fill="#f88f19" d="M460 55c13.8 0 25 11.19 25 25s-11.2 25-25 25c-13.81 0-25-11.19-25-25s11.19-25 25-25zM50 390c8.28 0 15 6.72 15 15s-6.72 15-15 15c-8.29 0-15-6.72-15-15s6.71-15 15-15z" data-original="#f88f19" class=""/>
    <path fill="#bce4ff" d="M341 430v30H90V100h30v330z" data-original="#bce4ff" class=""/>
    <path fill="#a0b5c5" d="M341 50c18.55 18.55 40.45 41.45 59 60h-59zM400 400v30H120v-30z" data-original="#a0b5c5" class=""/>
    <circle cx="467.5" cy="142.5" r="7.5" fill="#000000" data-original="#000000" class=""/>
    <circle cx="457.5" cy="397.5" r="7.5" fill="#000000" data-original="#000000" class=""/>
    <circle cx="432.5" cy="217.5" r="7.5" fill="#000000" data-original="#000000" class=""/>
    <circle cx="397.5" cy="467.5" r="7.5" fill="#000000" data-original="#000000" class=""/>
    <circle cx="72.5" cy="62.5" r="7.5" fill="#000000" data-original="#000000" class=""/>
    <circle cx="62.5" cy="357.5" r="7.5" fill="#000000" data-original="#000000" class=""/>
    <circle cx="47.5" cy="232.5" r="7.5" fill="#000000" data-original="#000000" class=""/>
    <path d="M400 115h-59a5 5 0 0 1-5-5V50a5 5 0 0 1 10 0v55h54a5 5 0 1 1 0 10zM341 465H90a5 5 0 0 1-5-5V100a5 5 0 0 1 5-5h30a5 5 0 1 1 0 10H95v350h241v-25a5 5 0 1 1 10 0v30a5 5 0 0 1-5 5z" fill="#000000" data-original="#000000" class=""/>
    <path d="M 400 435 L 120 435 C 117.239 435 115 432.761 115 430 L 115 50 C 115 47.239 117.239 45 120 45 L 341 45 C 342.326 45 343.598 45.527 344.536 46.464 C 353.83 55.758 364.119 66.302 374.07 76.499 C 384.006 86.68 394.279 97.208 403.536 106.464 C 404.474 107.402 405 108.674 405 110 L 405 320.237 C 405 324.086 403.333 310.449 400 308.524 C 398.453 307.631 395.059 320.259 395.059 318.473 L 395 112.069 C 386.091 103.136 376.351 93.154 366.913 83.484 C 357.504 73.842 347.79 63.888 338.927 55 L 125 55 L 125 425 L 395 425 L 395.657 304.854 C 395.657 301.005 396.667 306.905 400 308.829 C 401.547 309.723 405 304.484 405 306.27 L 405 430 C 405 432.761 402.761 435 400 435 Z" fill="#000000" data-original="#000000" class=""/>
    <path d="M 215 125 L 155 125 C 151.151 125 148.745 120.833 150.67 117.5 C 151.563 115.953 153.214 115 155 115 L 215 115 C 218.849 115 221.255 119.167 219.33 122.5 C 218.437 124.047 216.786 125 215 125 Z M 300 150 L 155 150 C 151.151 150 148.745 145.833 150.67 142.5 C 151.563 140.953 153.214 140 155 140 L 300 140 C 303.849 140 306.255 144.167 304.33 147.5 C 303.437 149.047 301.786 150 300 150 Z M 300 175 L 155 175 C 151.151 175 148.745 170.833 150.67 167.5 C 151.563 165.953 153.214 165 155 165 L 300 165 C 303.849 165 306.255 169.167 304.33 172.5 C 303.437 174.047 301.786 175 300 175 Z M 300 200 L 155 200 C 151.151 200 148.745 195.833 150.67 192.5 C 151.563 190.953 153.214 190 155 190 L 300 190 C 303.849 190 306.255 194.167 304.33 197.5 C 303.437 199.047 301.786 200 300 200 Z M 300 225 L 155 225 C 151.151 225 148.745 220.833 150.67 217.5 C 151.563 215.953 153.214 215 155 215 L 300 215 C 303.849 215 306.255 219.167 304.33 222.5 C 303.437 224.047 301.786 225 300 225 Z M 300 250 L 155 250 C 151.151 250 148.745 245.833 150.67 242.5 C 151.563 240.953 153.214 240 155 240 L 300 240 C 303.849 240 306.255 244.167 304.33 247.5 C 303.437 249.047 301.786 250 300 250 Z M 400 405 L 120 405 C 116.151 405 113.745 400.833 115.67 397.5 C 116.563 395.953 118.214 395 120 395 L 400 395 C 402.762 395 405 397.238 405 400 C 405 402.762 402.762 405 400 405 Z M 460 110 C 443.458 110 430 96.542 430 80 C 430 63.458 443.458 50 460 50 C 476.542 50 490 63.458 490 80 C 490 96.542 476.542 110 460 110 Z M 460 60 C 448.973 60 440 68.972 440 80 C 440 91.028 448.973 100 460 100 C 471.028 100 480 91.028 480 80 C 480 68.972 471.028 60 460 60 Z M 50 425 C 38.973 425 30 416.028 30 405 C 30 393.972 38.973 385 50 385 C 61.028 385 70 393.972 70 405 C 70 416.028 61.028 425 50 425 Z M 50 395 C 44.486 395 40 399.486 40 405 C 40 410.514 44.486 415 50 415 C 55.515 415 60 410.514 60 405 C 60 399.486 55.515 395 50 395 Z" fill="#000000" data-original="#000000" class=""/>
  </g>
</svg>