<svg xmlns="http://www.w3.org/2000/svg" version="1.1" xmlns:xlink="http://www.w3.org/1999/xlink" xmlns:svgjs="http://svgjs.com/svgjs" width="512" height="512" x="0" y="0" viewBox="0 0 512 512" style="enable-background:new 0 0 512 512" xml:space="preserve" class=""><g><path fill="#fed2a4" d="M80 292.33a5 5 0 0 1-5-5v-50.48H12.5a5 5 0 0 0-5 5v203.96a5 5 0 0 0 5 5h166a5 5 0 0 0 5-5V292.33z" data-original="#fed2a4"></path><path fill="#ffbd86" d="M38 445.81V241.85a5 5 0 0 1 5-5H12.5a5 5 0 0 0-5 5v203.96a5 5 0 0 0 5 5H43a5 5 0 0 1-5-5z" data-original="#ffbd86"></path><path fill="#c4e2ff" d="M355.539 77.662H164.702v42.148a5 5 0 0 1-5 5H75v162.52a5 5 0 0 0 5 5h151.369c10.059-48.261 52.834-84.52 104.081-84.52 8.644 0 17.043 1.039 25.088 2.985V82.662a4.999 4.999 0 0 0-4.999-5z" data-original="#c4e2ff"></path><path fill="#0593fc" d="M332.539 102.663H164.702v17.148a5 5 0 0 1-5 5H100v139.52a3 3 0 0 0 3 3h136.964c17.312-35.252 53.563-59.52 95.487-59.52l.088.001V105.663a3 3 0 0 0-3-3z" data-original="#0593fc"></path><path fill="#0182fc" d="M141.461 264.33V124.81H100v139.52a3 3 0 0 0 3 3h41.461a3 3 0 0 1-3-3z" data-original="#0182fc"></path><path fill="#46cc8d" d="m298.21 214.522-29.655-39.99c-1.999-2.696-6.033-2.696-8.032 0l-34.35 46.322-49.061-66.16c-1.999-2.696-6.033-2.696-8.032 0L100 247.848v16.482a3 3 0 0 0 3 3h136.964c11.901-24.234 32.752-43.273 58.246-52.808z" data-original="#46cc8d"></path><path fill="#08b865" d="M144.46 267.33a3 3 0 0 1-2.999-3v-72.393L100 247.848v16.482a3 3 0 0 0 3 3z" data-original="#08b865"></path><circle cx="293.039" cy="144.278" r="15" fill="#fe9901" data-original="#fe9901"></circle><path fill="#fed2a4" d="M480.725 71.81v58a5 5 0 0 1-5 5H391a5 5 0 0 1-5-5v-58a5 5 0 0 1 5-5h84.725a5 5 0 0 1 5 5z" data-original="#fed2a4"></path><path fill="#ffbd86" d="M417.275 129.81v-58a5 5 0 0 1 5-5H391a5 5 0 0 0-5 5v58a5 5 0 0 0 5 5h31.275a5 5 0 0 1-5-5z" data-original="#ffbd86"></path><path fill="#0593fc" d="M453.59 101.603c-1.155-2-4.042-2-5.196 0l-15.142 26.226-18.662-32.324c-1.155-2-4.042-2-5.196 0l-21.874 37.887a4.976 4.976 0 0 0 3.48 1.418h81.762z" data-original="#0593fc"></path><path fill="#a2c7f8" d="m498.935 450.748-76.077-76.077a106.913 106.913 0 0 1-26.87 26.87l76.077 76.077c7.42 7.42 19.45 7.42 26.87 0 7.42-7.42 7.42-19.45 0-26.87z" data-original="#a2c7f8"></path><path fill="#8db3df" d="M503.878 459.43c-7.411 5.193-17.693 4.497-24.313-2.123l-68.468-68.468a106.825 106.825 0 0 1-15.109 12.702l76.077 76.077c7.42 7.42 19.45 7.42 26.87 0 4.93-4.93 6.564-11.892 4.943-18.188z" data-original="#8db3df"></path><circle cx="335.45" cy="314.133" r="106.323" fill="#647fa0" data-original="#647fa0"></circle><path fill="#5e6f90" d="M271 314.133c0-51.553 36.693-94.532 85.387-104.257a106.811 106.811 0 0 0-20.936-2.066c-58.72 0-106.323 47.602-106.323 106.323s47.602 106.323 106.323 106.323c7.167 0 14.167-.714 20.936-2.066C307.693 408.666 271 365.687 271 314.133z" data-original="#5e6f90"></path><circle cx="335.451" cy="314.133" r="76.323" fill="#c4e2ff" transform="rotate(-22.48 335.348 313.748)" data-original="#c4e2ff"></circle><path fill="#b3dafe" d="M301 314.133c0-34.824 23.453-64.254 55.387-73.38a76.056 76.056 0 0 0-20.936-2.943c-42.085 0-76.323 34.238-76.323 76.323s34.238 76.323 76.323 76.323c7.26 0 14.278-1.041 20.936-2.943-31.934-9.126-55.387-38.555-55.387-73.38z" data-original="#b3dafe"></path><path fill="#fed402" d="M164.702 33.83v85.98a5 5 0 0 1-5 5H36a5 5 0 0 1-5-5V33.83a5 5 0 0 1 5-5h123.702a5 5 0 0 1 5 5z" data-original="#fed402"></path><path fill="#fac600" d="M62.298 119.81V33.83a5 5 0 0 1 5-5H36a5 5 0 0 0-5 5v85.98a5 5 0 0 0 5 5h31.298a5 5 0 0 1-5-5z" data-original="#fac600"></path><circle cx="116.5" cy="64.31" r="12.5" fill="#ffffff" data-original="#ffffff"></circle><path fill="#d88a55" d="M135.5 96.81c-14.046 0-27.024 3.269-37.538 8.801 4.931 5.682 8.418 12.185 10.021 19.199h51.719a5 5 0 0 0 5-5v-17.9c-8.745-3.251-18.669-5.1-29.202-5.1z" data-original="#d88a55"></path><path fill="#ea9b58" d="M44.5 83.477c-4.632 0-9.145.388-13.5 1.109v35.224a5 5 0 0 0 5 5h71.983c-5.369-23.491-31.738-41.333-63.483-41.333z" data-original="#ea9b58"></path><path fill="#d88a55" d="M36 124.81h31.298a5 5 0 0 1-5-5V85.421A81.775 81.775 0 0 0 44.5 83.477c-4.632 0-9.145.387-13.5 1.109v35.224a5 5 0 0 0 5 5z" data-original="#d88a55"></path><path d="M44.5 387.83c-4.143 0-7.5 3.357-7.5 7.5s3.357 7.5 7.5 7.5h55.637c4.143 0 7.5-3.357 7.5-7.5s-3.357-7.5-7.5-7.5zM154 369.58c0-4.143-3.357-7.5-7.5-7.5h-102c-4.143 0-7.5 3.357-7.5 7.5s3.357 7.5 7.5 7.5h102a7.5 7.5 0 0 0 7.5-7.5zM146.5 336.33h-102c-4.143 0-7.5 3.357-7.5 7.5s3.357 7.5 7.5 7.5h102c4.143 0 7.5-3.357 7.5-7.5s-3.357-7.5-7.5-7.5zM146.5 310.58h-102c-4.143 0-7.5 3.357-7.5 7.5s3.357 7.5 7.5 7.5h102c4.143 0 7.5-3.357 7.5-7.5s-3.357-7.5-7.5-7.5zM293.039 166.778c12.406 0 22.5-10.094 22.5-22.5s-10.094-22.5-22.5-22.5-22.5 10.094-22.5 22.5 10.094 22.5 22.5 22.5zm0-30c4.136 0 7.5 3.364 7.5 7.5s-3.364 7.5-7.5 7.5-7.5-3.364-7.5-7.5 3.364-7.5 7.5-7.5zM391 142.31h84.725c6.893 0 12.5-5.607 12.5-12.5v-58c0-6.893-5.607-12.5-12.5-12.5H391c-6.893 0-12.5 5.607-12.5 12.5v58c0 6.893 5.607 12.5 12.5 12.5zm8.692-15 12.3-21.305 12.3 21.305zm42.52 0 8.78-15.207 8.78 15.207zm4.882-21.958c.001 0 .001.001 0 0l.007.011-.007-.011zM393.5 74.31h79.725v46.301l-13.14-22.758a10.531 10.531 0 0 0-9.091-5.25h-.002a10.53 10.53 0 0 0-9.094 5.25l-8.646 14.977-12.166-21.073a10.53 10.53 0 0 0-9.092-5.251h-.002a10.532 10.532 0 0 0-9.094 5.25l-9.398 16.279z" fill="#000000" data-original="#000000"></path><path d="m504.238 445.444-71.8-71.8c10.67-17.327 16.835-37.711 16.835-59.51 0-51.441-34.304-95.012-81.234-109.062V82.663c0-6.893-5.607-12.5-12.5-12.5H172.201V33.83c0-6.893-5.607-12.5-12.5-12.5H36c-6.893 0-12.5 5.607-12.5 12.5v85.98c0 6.893 5.607 12.5 12.5 12.5h31.5v97.04h-55c-6.893 0-12.5 5.607-12.5 12.5v203.96c0 6.893 5.607 12.5 12.5 12.5h166c6.893 0 12.5-5.607 12.5-12.5v-58.804c0-4.143-3.357-7.5-7.5-7.5s-7.5 3.357-7.5 7.5v56.304H15V244.35h52.5v40.479h-23c-4.143 0-7.5 3.357-7.5 7.5s3.357 7.5 7.5 7.5H176v52.177c0 4.143 3.357 7.5 7.5 7.5s7.5-3.357 7.5-7.5V299.83h31.53a114.272 114.272 0 0 0-.902 14.304c0 62.763 51.061 113.823 113.822 113.823 21.8 0 42.184-6.165 59.511-16.836l71.801 71.801c5.166 5.166 11.952 7.749 18.738 7.749s13.572-2.583 18.737-7.749c5.006-5.005 7.763-11.66 7.763-18.739s-2.757-13.734-7.762-18.739zM172.201 119.81v-9.647H272c4.143 0 7.5-3.357 7.5-7.5s-3.357-7.5-7.5-7.5h-99.799v-10h180.838V201.67a113.772 113.772 0 0 0-10-1.101v-94.906c0-5.79-4.71-10.5-10.5-10.5H307c-4.143 0-7.5 3.357-7.5 7.5s3.357 7.5 7.5 7.5h21.039v90.406a113.172 113.172 0 0 0-27.068 5.085l-26.392-35.59a12.556 12.556 0 0 0-10.04-5.054c-3.94 0-7.693 1.89-10.041 5.054l-28.326 38.198-43.036-58.036a12.556 12.556 0 0 0-10.041-5.054c-3.939 0-7.692 1.89-10.04 5.054L107.5 225.142V132.31h52.201c6.893 0 12.5-5.607 12.5-12.5zm-62.702-11.034c7.904-2.863 16.803-4.466 26.001-4.466 7.442 0 14.848 1.036 21.701 3.02v9.98h-43.649a50.768 50.768 0 0 0-4.053-8.534zM38.5 36.33h118.701v55.506c-6.966-1.668-14.226-2.526-21.701-2.526-12.894 0-25.21 2.581-35.864 7.208C86.331 83.856 66.412 75.977 44.5 75.977c-1.999 0-4.001.082-6 .219zm0 54.887c1.996-.16 4.001-.24 6-.24 23.508 0 44.005 10.641 52.65 26.333H38.5zm44 193.613V132.31h10v132.021c0 5.79 4.71 10.5 10.5 10.5h125.625a112.92 112.92 0 0 0-3.166 9.999zm25-25v-9.504l65.595-88.456 47.053 63.452a7.501 7.501 0 0 0 12.048 0l32.343-43.614 21.996 29.662c-21.699 10.371-39.624 27.413-51.097 48.46zm129.128 54.303c0-54.491 44.331-98.823 98.822-98.823s98.823 44.332 98.823 98.823-44.332 98.823-98.823 98.823-98.822-44.331-98.822-98.823zm257.004 158.181c-4.483 4.484-11.78 4.484-16.263 0L407.355 402.3a114.884 114.884 0 0 0 16.263-16.263l70.014 70.014a11.424 11.424 0 0 1 3.368 8.131c0 3.072-1.196 5.96-3.368 8.132z" fill="#000000" data-original="#000000"></path><path d="M411.263 325.74a7.5 7.5 0 0 0-9.122 5.411c-7.788 30.503-35.212 51.806-66.689 51.806-37.949 0-68.823-30.874-68.823-68.823s30.874-68.823 68.823-68.823c32.18 0 60.467 22.828 67.261 54.28a7.5 7.5 0 0 0 14.662-3.168c-8.275-38.308-42.729-66.112-81.923-66.112-46.221 0-83.823 37.603-83.823 83.823s37.603 83.823 83.823 83.823c38.338 0 71.738-25.945 81.223-63.095a7.5 7.5 0 0 0-5.412-9.122zM116.5 84.31c11.028 0 20-8.972 20-20s-8.972-20-20-20-20 8.972-20 20 8.972 20 20 20zm0-25c2.757 0 5 2.243 5 5s-2.243 5-5 5-5-2.243-5-5 2.243-5 5-5z" fill="#000000" data-original="#000000"></path></g></svg>