<?xml version="1.0" encoding="utf-8"?>
<svg viewBox="225.801 212.915 250.379 245.37" width="250.379" height="245.37" xmlns="http://www.w3.org/2000/svg">
  <path d="M246.983 180.065c-4.949-4.949-12.971-4.949-17.92 0l-29.409 28.775a10.86 10.86 0 0 1-7.68 3.181h-55.991c-6.84 0-12.722-5.262-13.033-12.095-.332-7.287 5.482-13.286 12.679-13.286h22.682c6.31 0 11.631-4.962 11.772-11.267.149-6.516-5.095-11.804-11.53-11.804l-47.951-.004a47.37 47.37 0 0 0-36.454 17.121 24.787 24.787 0 0 1-19.469 9.447h-5.064v51.743h147.076c3.688 0 7.226-1.465 9.834-4.073l40.454-39.82c4.954-4.951 4.945-12.965.004-17.918z" data-original="#ffb69f" class="" style="fill: rgba(255, 181, 159, 0);" transform="matrix(1, 0, 0, 1, 222.985733, 207.600677)"/>
  <path fill="#7d7b79" d="M45.405 179.472H5.319v68.712h40.086a4.21 4.21 0 0 0 4.21-4.21v-60.293a4.21 4.21 0 0 0-4.21-4.209z" data-original="#7d7b79" transform="matrix(1, 0, 0, 1, 222.985733, 207.600677)"/>
  <path d="M196.692 232.899H75.368a2.5 2.5 0 1 1 0-5h121.324l40.423-39.817a2.501 2.501 0 0 1 3.508 3.564l-40.394 39.759c-.976.973-2.202 1.494-3.537 1.494zm-131.324 0H61.09a2.5 2.5 0 1 1 0-5h4.278a2.5 2.5 0 1 1 0 5z" data-original="#fbe0e2" class="" style="fill: rgba(251, 224, 226, 0);" transform="matrix(1, 0, 0, 1, 222.985733, 207.600677)"/>
  <path fill="#efeff0" d="M38.839 238.982a2.5 2.5 0 0 1-2.5-2.5v-4.002a2.5 2.5 0 1 1 5 0v4.002a2.5 2.5 0 0 1-2.5 2.5zm0-14.003a2.5 2.5 0 0 1-2.5-2.5v-32a2.5 2.5 0 1 1 5 0v32a2.5 2.5 0 0 1-2.5 2.5z" data-original="#efeff0" class="" transform="matrix(1, 0, 0, 1, 222.985733, 207.600677)"/>
  <path fill="#f2bf22" d="M112.765 69.467h89.031v75.103h-89.031z" data-original="#f2bf22" class="" transform="matrix(1, 0, 0, 1, 222.985733, 207.600677)"/>
  <path fill="#f9e5af" d="M191.017 136.291h-49.456a2.5 2.5 0 1 1 0-5h46.956V80.247a2.5 2.5 0 1 1 5 0v53.544a2.5 2.5 0 0 1-2.5 2.5zm-59.456 0h-8.017a2.5 2.5 0 1 1 0-5h8.017a2.5 2.5 0 1 1 0 5z" data-original="#f9e5af" class="" transform="matrix(1, 0, 0, 1, 222.985733, 207.600677)"/>
  <path fill="#fc5d3d" d="m162.744 11.212 4.263 8.638 9.533 1.385c4.997.726 6.993 6.868 3.377 10.393l-6.898 6.724 1.628 9.494c.854 4.977-4.371 8.773-8.84 6.423l-8.526-4.483-8.526 4.483c-4.47 2.35-9.694-1.446-8.84-6.423l1.628-9.494-6.898-6.724c-3.616-3.525-1.621-9.666 3.377-10.393l9.533-1.385 4.263-8.638c2.233-4.528 8.691-4.528 10.926 0z" data-original="#fc5d3d" class="" transform="matrix(1, 0, 0, 1, 222.985733, 207.600677)"/>
  <circle cx="175.005" cy="241.875" r="2.5" fill="#000000" data-original="#000000" class="" transform="matrix(1, 0, 0, 1, 222.985733, 207.600677)"/>
  <path d="M 248.755 178.305 C 242.828 172.379 233.24 172.371 227.315 178.275 L 197.905 207.055 L 197.885 207.075 C 196.321 208.648 194.193 209.53 191.975 209.525 L 135.985 209.525 C 130.395 209.525 125.665 205.165 125.445 199.815 C 125.129 194.259 129.663 189.156 135.625 189.135 L 158.305 189.135 C 165.975 189.135 172.376 183.155 172.585 175.425 C 172.585 166.88 165.914 161.065 158.555 161.065 L 110.605 161.065 C 96.105 161.065 81.892 167.442 72.225 179.085 L 72.185 179.135 C 67.935 184.535 61.555 187.635 54.675 187.635 L 52.115 187.635 L 52.115 183.685 C 52.115 179.985 49.105 176.975 45.405 176.975 L 30.315 176.975 C 28.945 176.975 27.815 178.095 27.815 179.475 C 27.815 180.855 28.945 181.975 30.315 181.975 L 45.405 181.975 C 46.345 181.975 47.115 182.745 47.115 183.685 L 47.115 243.975 C 47.115 244.915 46.345 245.685 45.405 245.685 L 5.315 245.685 C 3.945 245.685 2.815 246.805 2.815 248.185 C 2.815 249.565 3.945 250.685 5.315 250.685 L 45.405 250.685 C 48.97 250.685 51.886 247.889 52.095 244.375 L 177.505 244.375 C 179.43 244.375 180.342 243.127 175.007 241.876 C 174.137 241.672 175.633 238.982 174.74 238.982 L 52.115 239.375 L 52.115 192.635 L 54.675 192.635 C 63.01 192.628 70.887 188.817 76.065 182.285 L 76.075 182.285 C 84.625 171.975 97.205 166.065 110.605 166.065 L 158.555 166.065 C 163.29 166.074 167.585 169.824 167.585 175.315 C 167.495 180.185 163.335 184.135 158.305 184.135 L 135.625 184.135 C 126.959 184.148 120.056 191.388 120.455 200.045 C 120.849 208.248 127.804 214.504 135.985 214.525 L 191.975 214.525 C 195.545 214.525 198.895 213.135 201.425 210.605 L 201.425 210.595 L 230.815 181.855 L 230.836 181.835 C 234.855 177.816 241.285 177.904 245.216 181.835 C 249.186 185.826 249.185 192.235 245.216 196.205 L 204.776 236.025 L 204.756 236.035 C 202.613 238.165 199.717 239.365 196.695 239.375 L 175.225 238.982 C 173.3 238.982 175.134 240.209 176.096 241.876 C 176.543 242.65 174.497 244.375 175.39 244.375 L 196.695 244.375 C 201.006 244.375 205.235 242.625 208.296 239.565 L 248.735 199.765 L 248.746 199.755 C 254.655 193.844 254.694 184.266 248.755 178.305 Z M 5.315 181.975 L 10.315 181.975 C 12.24 181.975 13.442 179.892 12.48 178.225 C 12.033 177.451 11.208 176.975 10.315 176.975 L 5.315 176.975 C 3.945 176.975 2.815 178.095 2.815 179.475 C 2.815 180.855 3.945 181.975 5.315 181.975 Z" fill="#000000" data-original="#000000" class="" transform="matrix(1, 0, 0, 1, 222.985733, 207.600677)"/>
  <circle cx="20.315" cy="179.475" r="2.5" fill="#000000" data-original="#000000" class="" transform="matrix(1, 0, 0, 1, 222.985733, 207.600677)"/>
  <circle cx="201.795" cy="116.305" r="2.5" fill="#000000" data-original="#000000" class="" transform="matrix(1, 0, 0, 1, 222.985733, 207.600677)"/>
  <path d="M110.265 70.481v74.084c0 1.358 1.09 2.5 2.5 2.5h89.03c1.371 0 2.5-1.1 2.5-2.5v-18.26a2.5 2.5 0 0 0-5 0v15.76h-84.03v-70.1h84.03v34.34a2.5 2.5 0 0 0 5 0V70.481l24.39-25.217c.92-.94.97-2.53-.06-3.54-.96-.93-2.601-.9-3.53.06l-24.364 25.18H113.83l-24.365-25.18c-.93-.96-2.57-.99-3.53-.06-.989.949-1.017 2.542-.06 3.54z" fill="#000000" data-original="#000000" class="" transform="matrix(1, 0, 0, 1, 222.985733, 207.600677)"/>
  <path d="m138.855 39.225-1.41 8.2c-1.172 7.027 6.175 12.359 12.471 9.06l7.359-3.87 7.37 3.87c6.346 3.352 13.721-2.177 12.46-9.06l-1.399-8.2 5.96-5.81c5.103-4.953 2.265-13.645-4.771-14.65l-8.229-1.2-3.681-7.45v-.01c-3.141-6.394-12.274-6.38-15.41 0l-3.68 7.46-8.229 1.2c-7.068 1.01-9.854 9.719-4.771 14.65zm-.48-15.52c10.079-1.458 10.636-1.184 11.42-2.75l4.26-8.64c1.345-2.671 5.102-2.672 6.45 0l4.26 8.64c.762 1.564 1.368 1.296 11.42 2.75 2.865.418 4.174 3.975 1.98 6.14-7.277 7.097-7.905 7.222-7.61 8.93l1.63 9.49c.415 3.153-2.728 5.123-5.21 3.79l-8.53-4.48a2.486 2.486 0 0 0-2.33 0l-8.529 4.48c-2.688 1.444-5.74-.992-5.21-3.77l1.63-9.51c.14-.81-.13-1.64-.72-2.21l-6.9-6.73c-2.176-2.146-.881-5.711 1.989-6.13zM123.544 109.519H137.4a2.5 2.5 0 1 0 0-5h-13.856a2.5 2.5 0 1 0 0 5zM123.544 119.875h27.711a2.5 2.5 0 1 0 0-5h-27.711a2.5 2.5 0 1 0 0 5z" fill="#000000" data-original="#000000" class="" transform="matrix(1, 0, 0, 1, 222.985733, 207.600677)"/>
</svg>