<svg xmlns="http://www.w3.org/2000/svg" version="1.1" xmlns:xlink="http://www.w3.org/1999/xlink" xmlns:svgjs="http://svgjs.com/svgjs" width="512" height="512" x="0" y="0" viewBox="0 0 64 64" style="enable-background:new 0 0 512 512" xml:space="preserve" class=""><g><path fill="#b4dd7f" d="m55 2 5 8h-2v17h-6V10h-2zM9 38l5 8h-2v17H6V46H4z" data-original="#b4dd7f" class=""></path><path fill="#ffc729" d="M49.23 36.28a18.09 18.09 0 0 0 1.66-3.43 3.843 3.843 0 0 0 4.18-.2l.12-.09 4.25 4.25-.09.12c-.48.66-.72 1.45-.72 2.24 0 .5.09 1.01.29 1.48a3.867 3.867 0 0 0 2.93 2.33L62 43v6l-.15.03c-1.31.21-2.42 1.09-2.93 2.32s-.35 2.64.43 3.72l.09.12-4.25 4.24-.12-.08c-.66-.48-1.45-.72-2.24-.72-.5 0-1.01.09-1.48.29a3.867 3.867 0 0 0-2.33 2.93L49 62h-6l-.03-.16a3.836 3.836 0 0 0-2.32-2.92 3.95 3.95 0 0 0-2.17-.23A8.01 8.01 0 0 0 40 54c1.67 1.26 3.75 2 6 2 5.52 0 10-4.48 10-10 0-4.44-2.89-8.2-6.9-9.51h-.01c.05-.07.1-.14.14-.21zM12.67 21.6 12 26.54c0 .13 0 .27.01.4H12c0-.78-.47-1.48-1.2-1.78-.01 0-.01-.01-.02-.01-.72-.3-1.55-.14-2.1.41l-.75.75-4.24-4.24.75-.75c.55-.55.71-1.38.41-2.1 0-.01-.01-.01-.01-.02-.3-.73-1-1.2-1.78-1.2H2v-6h1.06c.78 0 1.48-.47 1.78-1.2 0-.01.01-.01.01-.02.3-.72.14-1.55-.41-2.1l-.75-.75 4.24-4.24.75.75c.55.55 1.38.71 2.1.41.01 0 .01-.01.02-.01.73-.3 1.2-1 1.2-1.78V2h6v1.06c0 .78.47 1.48 1.2 1.78.01 0 .01.01.02.01.72.3 1.55.14 2.1-.41l.75-.75 4.24 4.24-.75.75c-1.76.49-3.41 1.23-4.92 2.19v-.01A6.997 6.997 0 0 0 15 8c-3.86 0-7 3.14-7 7 0 3.04 1.95 5.64 4.67 6.6z" data-original="#ffc729"></path><path fill="#fcd770" d="M20.64 10.86v.01c-1.13.71-2.18 1.54-3.13 2.48A3.014 3.014 0 0 0 15 12c-1.65 0-3 1.35-3 3 0 1.36.91 2.51 2.15 2.88a17.93 17.93 0 0 0-1.48 3.72A7.009 7.009 0 0 1 8 15c0-3.86 3.14-7 7-7 2.31 0 4.37 1.13 5.64 2.86zM40 46c0 3.31 2.69 6 6 6s6-2.69 6-6c0-3.24-2.57-5.89-5.79-6l-.01-.01a17.95 17.95 0 0 0 2.89-3.5h.01C53.11 37.8 56 41.56 56 46c0 5.52-4.48 10-10 10-2.25 0-4.33-.74-6-2v-1c0-.55-.45-1-1-1h-1v-4h1c.55 0 1-.45 1-1z" data-original="#fcd770"></path><path fill="#aab2bd" d="M40 53v1c0 1.75-.57 3.37-1.52 4.69-.25.34-.52.67-.82.97A8.014 8.014 0 0 1 32 62c-4.42 0-8-3.58-8-8v-1c0-.55.45-1 1-1h14c.55 0 1 .45 1 1z" data-original="#aab2bd"></path><path fill="#ccd1d9" d="M38 48v4H26v-4h8z" data-original="#ccd1d9"></path><path fill="#ffeaa7" d="M40 46v1c0 .55-.45 1-1 1h-5V38h-4v10h-5c-.55 0-1-.45-1-1V36h-4v5.78a18.485 18.485 0 0 1-7.99-14.84c-.01-.13-.01-.27-.01-.4l.67-4.94c.36-1.3.85-2.55 1.48-3.72.87-1.65 1.98-3.15 3.28-4.45l.08-.08c.95-.94 2-1.77 3.13-2.48 1.51-.96 3.16-1.7 4.92-2.19 1.58-.44 3.26-.68 4.98-.68h2.92C43.7 8 52 16.3 52 26.54c0 2.19-.39 4.32-1.11 6.31-.43 1.2-.99 2.35-1.66 3.43-.04.07-.09.14-.14.21a17.95 17.95 0 0 1-2.89 3.5c-.68.66-1.42 1.26-2.2 1.79V28h-4v16z" data-original="#ffeaa7" class=""></path><path fill="#ff826e" d="M42 16c2.21 0 4 1.79 4 4s-1.79 4-4 4c-1.1 0-2.1-.45-2.83-1.17A4.025 4.025 0 0 1 38 20c0-2.21 1.79-4 4-4zM34.83 27.17C35.55 27.9 36 28.9 36 30c0 2.21-1.79 4-4 4s-4-1.79-4-4 1.79-4 4-4c1.1 0 2.1.45 2.83 1.17z" data-original="#ff826e"></path><circle cx="22" cy="30" r="2" fill="#ff826e" data-original="#ff826e"></circle><path fill="#e6e9ed" d="M44 41.78v.01c-.71.49-1.46.94-2.25 1.33L40 44V28h4zM30 38h4v10h-4zM24 36v8l-1.75-.88c-.79-.39-1.54-.84-2.25-1.33V36z" data-original="#e6e9ed"></path><circle cx="32" cy="30" r="1" fill="#000000" data-original="#000000" class=""></circle><path d="M32 35c2.757 0 5-2.243 5-5a4.966 4.966 0 0 0-.833-2.753l3.08-3.08A4.969 4.969 0 0 0 42 25c2.757 0 5-2.243 5-5s-2.243-5-5-5-5 2.243-5 5c0 1.017.309 1.962.833 2.753l-3.08 3.08A4.969 4.969 0 0 0 32 25a5.01 5.01 0 0 0-4.899 4h-2.285A2.996 2.996 0 0 0 22 27c-1.654 0-3 1.346-3 3s1.346 3 3 3a2.996 2.996 0 0 0 2.816-2h2.285A5.01 5.01 0 0 0 32 35zm10-18c1.654 0 3 1.346 3 3s-1.346 3-3 3-3-1.346-3-3 1.346-3 3-3zM32 27c1.654 0 3 1.346 3 3s-1.346 3-3 3-3-1.346-3-3 1.346-3 3-3zm-10 4a1.001 1.001 0 0 1 0-2 1.001 1.001 0 0 1 0 2z" fill="#000000" data-original="#000000" class=""></path><circle cx="42" cy="20" r="1" fill="#000000" data-original="#000000" class=""></circle><path d="M2.195 47H5v17h8V47h2.805L9 36.113zM11 45v17H7V45H5.805L9 39.887 12.195 45zM62.015 41.989a2.84 2.84 0 0 1-2.169-1.725 2.841 2.841 0 0 1 .315-2.752l.58-.812-5.44-5.441-.813.581a2.822 2.822 0 0 1-2.342.426c.417-1.372.691-2.799.798-4.266H59V11h2.805L55 .113 48.195 11H51v6.984C47.82 11.492 41.163 7 33.459 7h-2.918c-1.169 0-2.309.122-3.422.319l-5.047-5.047-1.459 1.458c-.264.264-.658.338-1.035.184A.918.918 0 0 1 19 3.063V1h-8v2.063c0 .374-.227.708-.603.862a.921.921 0 0 1-1.009-.195L7.929 2.272 2.272 7.928l1.458 1.46c.264.264.34.659.185 1.035a.921.921 0 0 1-.852.577H1v8h2.063c.373 0 .707.227.862.604a.921.921 0 0 1-.196 1.009l-1.457 1.459 5.656 5.656 1.459-1.458c.264-.263.658-.339 1.035-.184a.918.918 0 0 1 .578.851h.014c.145 7.289 4.244 13.81 10.788 17.082l1.198.599V47c0 1.103.897 2 2 2v2c-1.103 0-2 .897-2 2v1c0 4.962 4.037 9 9 9a8.983 8.983 0 0 0 7.004-3.361c.432-.026.864.043 1.267.209a2.825 2.825 0 0 1 1.717 2.162l.166.99h7.695l.161-.984a2.837 2.837 0 0 1 1.726-2.169 2.837 2.837 0 0 1 2.752.315l.813.58 5.441-5.441-.579-.81a2.846 2.846 0 0 1-.315-2.759 2.831 2.831 0 0 1 2.162-1.72l.99-.164v-7.695zM39 51v-2c.222 0 .432-.045.631-.112C40.734 51.309 43.171 53 46 53c3.859 0 7-3.14 7-7a6.97 6.97 0 0 0-4.782-6.643 19.47 19.47 0 0 0 1.29-1.647A8.975 8.975 0 0 1 55 46c0 4.962-4.037 9-9 9a8.913 8.913 0 0 1-5-1.523V53c0-1.103-.897-2-2-2zm4-9.749c-.545.352-1.106.684-1.696.979l-.304.152V29h2zm-2 3.367 1.198-.599a19.723 19.723 0 0 0 4.355-2.966C49.072 41.33 51 43.421 51 46c0 2.757-2.243 5-5 5s-5-2.243-5-5zM55 3.887 58.195 9H57v17h-4V9h-1.195zM7.974 24.854l-.045.045-2.828-2.829.044-.044a2.921 2.921 0 0 0 .62-3.209A2.913 2.913 0 0 0 3.063 17H3v-4h.063a2.921 2.921 0 0 0 2.71-1.838 2.915 2.915 0 0 0-.628-3.188l-.044-.045L7.929 5.1l.045.044c.837.837 2.087 1.082 3.209.62A2.911 2.911 0 0 0 13 3.063V3h4v.063c0 1.188.713 2.249 1.839 2.711a2.917 2.917 0 0 0 3.188-.628l.045-.045 2.756 2.756a19.396 19.396 0 0 0-3.951 1.723A8.035 8.035 0 0 0 15 7c-4.411 0-8 3.589-8 8 0 3.078 1.785 5.849 4.509 7.176-.154.67-.276 1.352-.358 2.047a2.917 2.917 0 0 0-3.177.631zm5.799-8.295A2 2 0 0 1 13 15c0-1.103.897-2 2-2 .419 0 .81.143 1.142.377a19.597 19.597 0 0 0-2.369 3.182zm3.81-4.605A3.983 3.983 0 0 0 15 11c-2.206 0-4 1.794-4 4a4.02 4.02 0 0 0 1.826 3.344 19.537 19.537 0 0 0-.76 1.883A6.012 6.012 0 0 1 9 15c0-3.309 2.691-6 6-6 1.557 0 3.046.624 4.156 1.691-.547.394-1.07.816-1.573 1.263zm5.113 30.276A17.892 17.892 0 0 1 21 41.251V37h2v5.382zM19 35v4.749c-3.772-3.278-6-8.038-6-13.208C13 16.869 20.869 9 30.541 9h2.918C43.131 9 51 16.869 51 26.541c0 5.17-2.228 9.93-6 13.208V27h-6v20h-4V37h-6v10h-4V35zm14 12h-2v-8h2zm-6 2h10v2H27zm5 12c-3.859 0-7-3.14-7-7v-1h14v1c0 3.86-3.141 7-7 7zm29-12.797a4.816 4.816 0 0 0-3 2.764 4.83 4.83 0 0 0 .166 4.081l-3.118 3.117c-1.26-.652-2.739-.721-4.077-.167s-2.336 1.648-2.767 3.001h-4.407a4.813 4.813 0 0 0-2.762-3 4.845 4.845 0 0 0-.862-.256 8.93 8.93 0 0 0 .659-2.034A10.89 10.89 0 0 0 46 57c6.065 0 11-4.935 11-11 0-4.357-2.541-8.23-6.431-10.001.327-.592.624-1.201.888-1.827a4.82 4.82 0 0 0 3.591-.337l3.117 3.117a4.826 4.826 0 0 0-.167 4.078A4.826 4.826 0 0 0 61 43.797z" fill="#000000" data-original="#000000" class=""></path></g></svg>